<?xml version="1.0" encoding="utf-8"?>
<!-- Generator: Adobe Illustrator 16.0.0, SVG Export Plug-In . SVG Version: 6.00 Build 0)  -->
<!DOCTYPE svg PUBLIC "-//W3C//DTD SVG 1.1//EN" "http://www.w3.org/Graphics/SVG/1.1/DTD/svg11.dtd">
<svg version="1.1" id="Capa_1" xmlns="http://www.w3.org/2000/svg" xmlns:xlink="http://www.w3.org/1999/xlink" x="0px" y="0px"
	 width="100px" height="100px" viewBox="0 0 100 100" enable-background="new 0 0 100 100" xml:space="preserve">
<path fill-rule="evenodd" clip-rule="evenodd" fill="#BCA177" d="M29.605,72.012c0.416-2.064,0.879-4.041,1.404-6.002
	c0.893-3.331,1.934-6.611,3.293-9.786c1.772-4.141,4.335-7.717,7.682-10.726c5.031-4.525,10.912-7.441,17.424-9.153
	c0.129-0.034,0.261-0.058,0.393-0.083c0.028-0.006,0.06-0.001,0.164-0.001c-0.535,0.296-1.015,0.553-1.487,0.825
	c-4.25,2.45-8.137,5.374-11.549,8.909c-2.531,2.623-4.694,5.515-6.24,8.832c-1.348,2.891-2.338,5.912-3.119,9.003
	c-0.733,2.896-1.254,5.83-1.598,8.795c-0.478,4.113-0.616,8.241-0.464,12.38c0.083,2.256,0.273,4.504,0.519,6.747
	c0.037,0.336,0.092,0.671,0.144,1.049c-0.61-0.161-1.16-0.374-1.712-0.578c-5.015-1.852-9.558-4.511-13.624-7.977
	c-4.911-4.188-8.757-9.199-11.531-15.025c-1.691-3.551-2.88-7.268-3.583-11.137C5.077,54.55,4.873,50.99,5.075,47.404
	C5.43,41.118,7.04,35.171,9.891,29.562c1.601-3.147,3.554-6.062,5.849-8.748c4.026-4.712,8.812-8.449,14.365-11.196
	c3.7-1.831,7.584-3.117,11.646-3.866c3.585-0.661,7.192-0.884,10.831-0.676c8.203,0.47,15.712,3.01,22.535,7.574
	c3.524,2.357,6.639,5.179,9.363,8.43c4.379,5.226,7.424,11.139,9.122,17.739c1.134,4.409,1.564,8.894,1.34,13.443
	c-0.261,5.267-1.408,10.332-3.452,15.192c-1.644,3.908-3.805,7.509-6.472,10.807c-3.496,4.323-7.647,7.882-12.451,10.678
	c-3.842,2.236-7.931,3.855-12.257,4.874c-2.177,0.514-4.381,0.862-6.608,1.039c-2.688,0.212-5.375,0.211-8.059-0.093
	c-1.013-0.114-2.021-0.255-3.026-0.419c-0.174-0.027-0.257-0.093-0.313-0.268c-0.959-2.944-1.712-5.938-2.2-8.999
	c-0.364-2.281-0.626-4.571-0.618-6.886c0-0.082,0.011-0.165,0-0.246c-0.024-0.185,0.046-0.217,0.223-0.196
	c1.296,0.149,2.595,0.123,3.892,0.028c3.066-0.223,6.034-0.894,8.906-1.988c3.29-1.255,6.279-3.024,9.009-5.246
	c1.761-1.433,3.349-3.02,4.571-4.949c1.208-1.907,2.048-3.976,2.661-6.138c0.653-2.298,1.064-4.646,1.434-7.003
	c0.62-3.952,1.147-7.919,2.16-11.798c0.873-3.341,2.082-6.547,3.785-9.558c0.237-0.42,0.469-0.847,0.743-1.242
	c0.175-0.252,0.083-0.335-0.135-0.446c-1.489-0.764-3.069-1.272-4.685-1.682c-2.741-0.696-5.529-1.089-8.346-1.31
	c-2.914-0.229-5.831-0.25-8.744-0.042c-4.921,0.35-9.722,1.259-14.305,3.153c-3.865,1.598-7.204,3.928-9.985,7.064
	c-2.067,2.333-3.803,4.874-5.021,7.752c-0.915,2.161-1.504,4.408-1.767,6.743c-0.532,4.739,0.272,9.287,1.954,13.707
	c0.927,2.434,2.09,4.751,3.554,6.91C29.447,71.785,29.506,71.867,29.605,72.012z"/>
</svg>
