<?xml version="1.0" encoding="utf-8"?>
<!-- Generator: Adobe Illustrator 16.0.0, SVG Export Plug-In . SVG Version: 6.00 Build 0)  -->
<!DOCTYPE svg PUBLIC "-//W3C//DTD SVG 1.1//EN" "http://www.w3.org/Graphics/SVG/1.1/DTD/svg11.dtd">
<svg version="1.1" id="Capa_1" xmlns="http://www.w3.org/2000/svg" xmlns:xlink="http://www.w3.org/1999/xlink" x="0px" y="0px"
	 width="100px" height="100px" viewBox="0 0 100 100" enable-background="new 0 0 100 100" xml:space="preserve">
<path fill-rule="evenodd" clip-rule="evenodd" fill="#BCA177" d="M5,52.724c0-1.823,0-3.647,0-5.472
	c0.092-0.034,0.067-0.113,0.071-0.182c0.074-1.208,0.199-2.412,0.376-3.609c0.889-6.009,2.89-11.623,6.062-16.804
	c4.536-7.41,10.693-13.082,18.457-16.981c5.15-2.588,10.614-4.097,16.362-4.562c0.336-0.027,0.686,0.018,1.008-0.125
	c1.775,0,3.552,0,5.328,0c0.046,0.105,0.144,0.064,0.218,0.069c2.444,0.153,4.861,0.497,7.246,1.059
	c8.76,2.062,16.274,6.33,22.461,12.858c7.279,7.681,11.369,16.824,12.287,27.377c0.027,0.324-0.017,0.661,0.124,0.972
	c0,1.8,0,3.601,0,5.399c-0.108,0.046-0.066,0.142-0.071,0.219c-0.08,1.209-0.203,2.413-0.381,3.61
	c-0.756,5.093-2.313,9.928-4.748,14.465c-4.575,8.528-11.186,15.004-19.848,19.319c-8.293,4.128-17.07,5.472-26.242,4.228
	c-4.994-0.677-9.736-2.179-14.207-4.501c-8.718-4.529-15.315-11.182-19.762-19.94c-2.629-5.176-4.146-10.676-4.616-16.464
	C5.1,53.348,5.151,53.021,5,52.724z M38.901,43.016c0.017,0.007,0.033,0.016,0.051,0.023c-0.006-0.021-0.012-0.039-0.018-0.058
	c-0.073-0.093-0.145-0.188-0.223-0.278c-0.869-1-1.606-2.09-2.165-3.29c-1.972-4.241-2.206-8.643-1.182-13.156
	c0.042-0.18,0.084-0.241,0.278-0.195c0.313,0.075,0.635,0.118,0.954,0.171c2.346,0.393,4.631,0.99,6.792,2.009
	c0.133,0.063,0.251,0.191,0.424,0.144c0.004,0.014,0.008,0.026,0.011,0.04c0.003-0.007,0.011-0.018,0.009-0.021
	c-0.007-0.006-0.018-0.01-0.027-0.015c-0.007-0.095-0.004-0.191-0.025-0.283c-0.481-2.153-0.479-4.31,0.006-6.457
	c0.943-4.171,3.132-7.608,6.244-10.493c0.123-0.115,0.194-0.132,0.317-0.006c0.345,0.352,0.702,0.689,1.054,1.033
	c1.741,1.702,3.285,3.557,4.443,5.714c1.656,3.085,2.267,6.336,1.573,9.801c-0.09,0.45-0.299,0.876-0.285,1.348
	c-0.015-0.002-0.03-0.002-0.045-0.004c0.006,0.005,0.013,0.015,0.015,0.015c0.01-0.005,0.019-0.013,0.027-0.019
	c0.065-0.024,0.135-0.045,0.198-0.075c2.442-1.159,5.014-1.817,7.709-2.014c0.291-0.021,0.408,0.042,0.426,0.338
	c0.022,0.383,0.08,0.764,0.127,1.144c0.271,2.174,0.359,4.35,0.049,6.526c-0.056,0.394-0.114,0.787-0.185,1.268
	c0.168-0.145,0.268-0.227,0.363-0.313c4.89-4.391,9.779-8.782,14.673-13.168c0.177-0.157,0.179-0.246,0.02-0.42
	c-0.827-0.902-1.682-1.777-2.587-2.602C70.958,13.384,62.8,9.75,53.407,8.935c-4.506-0.392-8.959-0.037-13.345,1.068
	c-7.793,1.962-14.475,5.863-19.983,11.704c-6.289,6.668-9.967,14.589-11.026,23.698c-0.492,4.233-0.303,8.45,0.54,12.633
	c1.535,7.616,4.978,14.252,10.218,19.972c0.199,0.218,0.307,0.254,0.55,0.028c3.825-3.564,7.66-7.118,11.501-10.665
	c0.229-0.212,0.265-0.367,0.135-0.66c-1.504-3.419-2.105-7.005-1.944-10.729c0.008-0.171,0.06-0.229,0.229-0.227
	c0.996,0.013,1.992-0.009,2.987,0.034c0.94,0.041,1.877,0.122,2.865,0.237c-0.106-0.153-0.176-0.262-0.252-0.365
	c-0.656-0.893-1.212-1.843-1.674-2.848c-1.448-3.146-2.006-6.459-1.85-9.906c0.009-0.188,0.055-0.274,0.269-0.271
	c0.911,0.021,1.823,0.019,2.734,0.034C36.551,42.695,37.725,42.867,38.901,43.016z M64.383,56.186
	c0.143-0.013,0.214-0.014,0.284-0.028c1.786-0.354,3.591-0.417,5.405-0.347c0.239,0.009,0.306,0.084,0.297,0.313
	c-0.017,0.396-0.007,0.791-0.005,1.188c0.011,2.721-0.231,5.411-0.998,8.035c-0.986,3.379-2.713,6.284-5.5,8.49
	c-3.299,2.613-7.128,3.692-11.273,3.801c-0.379,0.01-0.443,0.115-0.44,0.461c0.014,2.52,0.004,5.039,0.014,7.559
	c0.001,0.268-0.063,0.344-0.335,0.34c-1.02-0.018-2.04-0.022-3.06,0c-0.334,0.008-0.439-0.06-0.438-0.42
	c0.019-2.568,0.006-5.136,0.016-7.704c0.002-0.276-0.07-0.367-0.354-0.378c-0.972-0.039-1.934-0.176-2.888-0.36
	c-4.34-0.837-7.979-2.855-10.72-6.376c-0.204-0.263-0.302-0.256-0.533-0.04c-3.589,3.342-7.186,6.676-10.789,10.002
	c-0.229,0.212-0.15,0.294,0.033,0.451c2.73,2.354,5.709,4.331,8.956,5.897c7.522,3.626,15.43,4.842,23.693,3.722
	c4.599-0.624,8.97-2.014,13.084-4.169c8.263-4.327,14.424-10.701,18.45-19.116c2.131-4.455,3.367-9.16,3.774-14.085
	c0.281-3.399,0.154-6.782-0.399-10.146c-0.711-4.313-2.083-8.409-4.104-12.286c-0.949-1.82-2.035-3.557-3.237-5.223
	c-0.152-0.211-0.253-0.227-0.436-0.04c-0.243,0.247-0.515,0.467-0.773,0.698c-5.862,5.264-11.726,10.527-17.586,15.792
	c-0.163,0.146-0.352,0.274-0.491,0.504c1.144-0.143,2.247-0.063,3.35-0.081c0.239-0.003,0.308,0.069,0.303,0.302
	c-0.02,0.864-0.013,1.727-0.032,2.591c-0.049,2.084-0.348,4.13-0.977,6.121C66.165,53.262,65.432,54.763,64.383,56.186z
	 M53.021,73.822c1.203-0.074,2.435-0.25,3.641-0.582c3.88-1.066,6.73-3.353,8.356-7.078c0.833-1.908,1.25-3.917,1.421-5.982
	c0.038-0.451,0.044-0.454-0.379-0.388c-1.555,0.242-3.073,0.619-4.536,1.205c-3.115,1.245-5.628,3.201-7.249,6.193
	c-1.013,1.869-1.552,3.882-1.771,5.987C52.436,73.842,52.437,73.842,53.021,73.822z M48.067,73.106
	c-0.079-1.295-0.274-2.569-0.631-3.819c-0.962-3.37-2.878-5.996-5.996-7.679c-2.255-1.215-4.701-1.733-7.228-1.949
	c-0.291-0.024-0.207,0.162-0.188,0.297c0.243,1.627,0.639,3.214,1.26,4.742c1.125,2.769,2.823,5.075,5.377,6.694
	c2.054,1.304,4.322,1.965,6.722,2.225C48.084,73.692,48.084,73.688,48.067,73.106z M63.763,46.852
	c0.048-0.196-0.026-0.261-0.306-0.21c-0.933,0.168-1.854,0.376-2.752,0.68c-2.538,0.86-4.715,2.231-6.281,4.458
	c-1.31,1.861-1.923,3.97-2.181,6.204c-0.033,0.283,0.163,0.214,0.298,0.204c0.813-0.067,1.621-0.164,2.417-0.35
	c2.323-0.541,4.369-1.57,5.939-3.415C62.737,52.262,63.452,49.666,63.763,46.852z M53.891,24.913
	c0.004-0.469-0.039-0.935-0.109-1.396c-0.397-2.611-1.684-4.784-3.338-6.777c-0.165-0.197-0.225-0.11-0.329,0.039
	c-0.408,0.578-0.786,1.176-1.123,1.798c-0.961,1.768-1.61,3.634-1.73,5.655c-0.192,3.257,1.028,6.013,3.037,8.486
	c0.146,0.18,0.227,0.146,0.348-0.011c0.292-0.38,0.611-0.74,0.891-1.129C52.966,29.585,53.866,27.403,53.891,24.913z M62.02,32.335
	c0-0.252-0.01-0.504,0.003-0.756c0.011-0.208-0.044-0.28-0.265-0.216c-2.413,0.71-4.627,1.784-6.445,3.561
	c-2.53,2.472-3.427,5.572-3.421,9.014c0.001,0.246,0.117,0.235,0.296,0.2c0.658-0.129,1.311-0.279,1.949-0.487
	c2.729-0.89,4.968-2.413,6.385-4.98C61.609,36.699,61.969,34.553,62.02,32.335z M47.635,58.063c0.297,0.104,0.291-0.104,0.271-0.324
	c-0.072-0.8-0.168-1.595-0.351-2.379c-0.683-2.938-2.151-5.334-4.782-6.919c-1.918-1.156-4.036-1.657-6.238-1.879
	c-0.257-0.026-0.199,0.105-0.176,0.256c0.163,1.044,0.416,2.064,0.771,3.059C38.938,54.961,42.63,57.519,47.635,58.063z
	 M48.126,41.903c0-0.815-0.067-1.627-0.215-2.431c-0.405-2.207-1.366-4.12-3.02-5.665c-1.716-1.604-3.785-2.53-6.005-3.18
	c-0.227-0.066-0.285-0.011-0.288,0.226c-0.011,1.093,0.051,2.179,0.237,3.257c0.893,5.152,4.005,8.367,8.902,9.796
	c0.187,0.055,0.246,0.031,0.269-0.174C48.073,43.124,48.123,42.516,48.126,41.903z M50.447,66.288
	c0.766-1.615,1.711-3.024,2.917-4.333c-1.864,0.124-3.66,0.037-5.53-0.019C48.938,63.27,49.778,64.69,50.447,66.288z M52.615,47.959
	c-0.595,0.062-1.113,0.117-1.632,0.168c-0.086,0.008-0.135,0.055-0.152,0.127c-0.044,0.184-0.172,0.166-0.308,0.14
	c-0.176-0.033-0.357-0.05-0.528-0.102c-0.603-0.182-1.255-0.029-1.854-0.306c0.828,1.032,1.505,2.135,2.088,3.362
	C50.881,50.085,51.656,49,52.615,47.959z"/>
</svg>
