<?xml version="1.0" encoding="utf-8"?>
<!-- Generator: Adobe Illustrator 16.0.0, SVG Export Plug-In . SVG Version: 6.00 Build 0)  -->
<!DOCTYPE svg PUBLIC "-//W3C//DTD SVG 1.1//EN" "http://www.w3.org/Graphics/SVG/1.1/DTD/svg11.dtd">
<svg version="1.1" id="Capa_1" xmlns="http://www.w3.org/2000/svg" xmlns:xlink="http://www.w3.org/1999/xlink" x="0px" y="0px"
	 width="100px" height="100px" viewBox="0 0 100 100" enable-background="new 0 0 100 100" xml:space="preserve">
<g>
	<path fill-rule="evenodd" clip-rule="evenodd" fill="#BCA177" d="M35.606,55.15c0.518-0.668,1.009-1.303,1.501-1.936
		c2.321-2.988,4.657-5.964,6.958-8.966c1.774-2.314,2.623-4.959,2.63-7.87c0.008-3.685,0.006-7.369-0.004-11.054
		c-0.001-0.275,0.081-0.326,0.335-0.324c2.036,0.01,4.071,0.01,6.107-0.001c0.253-0.001,0.313,0.06,0.313,0.315
		c-0.009,3.708-0.014,7.415-0.004,11.122c0.008,2.876,0.855,5.491,2.599,7.777c2.252,2.954,4.555,5.87,6.835,8.803
		c0.544,0.699,1.086,1.399,1.654,2.134C54.892,55.15,45.284,55.15,35.606,55.15z"/>
	<path fill-rule="evenodd" clip-rule="evenodd" fill="#BCA177" d="M74.319,65.477c0.476-3.389-0.667-6.516-2.746-9.227
		c-3.638-4.74-7.326-9.442-10.992-14.161c-0.104-0.133-0.195-0.276-0.292-0.414l-0.531-0.688c-0.942-1.33-1.407-2.821-1.414-4.439
		c-0.018-3.742-0.002-7.483-0.014-11.225c-0.001-0.291,0.103-0.319,0.348-0.322c1.358-0.014,2.367-0.961,2.485-2.313
		c0.103-1.186-0.781-2.314-2.005-2.544c-0.199-0.038-0.407-0.042-0.61-0.042c-5.664-0.002-11.327-0.003-16.991-0.001
		c-1.378,0-2.38,0.84-2.565,2.143c-0.205,1.44,0.934,2.747,2.426,2.753c0.308,0.001,0.39,0.07,0.389,0.389
		c-0.014,3.594-0.01,7.188-0.007,10.781c0,0.604-0.041,1.202-0.146,1.798c-0.133,0.026-0.177-0.092-0.241-0.156
		c-5.121-5.117-10.239-10.237-15.357-15.357c-0.313-0.313-0.313-0.312,0.031-0.604c4.958-4.215,10.628-6.971,17.016-8.206
		c4.429-0.855,8.88-0.905,13.325-0.102c8.837,1.596,16.156,5.848,21.948,12.695c4.298,5.08,7.018,10.93,8.106,17.493
		c1.357,8.175,0.132,15.97-3.699,23.335c-1.301,2.5-2.891,4.805-4.721,6.946c-0.157,0.185-0.229,0.235-0.429,0.032
		c-1.347-1.369-2.705-2.728-4.072-4.076c-0.203-0.2-0.22-0.331-0.094-0.6C73.893,68.467,74.182,66.463,74.319,65.477z"/>
	<path fill-rule="evenodd" clip-rule="evenodd" fill="#BCA177" d="M39,42.319c0.192,0.177,0.167,0.275,0.022,0.46
		c-2.287,2.929-4.566,5.863-6.845,8.797c-1.289,1.661-2.62,3.291-3.853,4.993c-4.834,6.677-2.546,16.206,4.771,19.998
		c1.994,1.034,4.109,1.554,6.355,1.551c3.537-0.004,7.074-0.001,10.612-0.001c3.503,0,7.006-0.004,10.509,0
		c3.787,0.005,7.031-1.326,9.739-3.963c0.232-0.226,0.334-0.197,0.544,0.017c1.098,1.121,2.211,2.226,3.327,3.328
		c0.161,0.16,0.19,0.235-0.007,0.404c-4.377,3.749-9.344,6.371-14.924,7.812c-4.076,1.051-8.217,1.378-12.412,1.012
		c-5.732-0.501-11.058-2.247-15.964-5.247c-5.494-3.359-9.83-7.853-13.006-13.454c-2.334-4.116-3.806-8.53-4.426-13.221
		c-0.458-3.469-0.429-6.937,0.1-10.4c1.013-6.643,3.66-12.558,7.881-17.777c0.222-0.274,0.455-0.539,0.672-0.816
		c0.128-0.164,0.206-0.192,0.379-0.018L39,42.319z"/>
	<path fill-rule="evenodd" clip-rule="evenodd" fill="#BCA177" d="M50,5C25.147,5,5,25.147,5,50c0,24.854,20.147,45,45,45
		c24.854,0,45-20.146,45-45C95,25.147,74.854,5,50,5z M50,90.641C27.555,90.641,9.36,72.445,9.36,50
		C9.36,27.555,27.555,9.36,50,9.36c22.445,0,40.641,18.195,40.641,40.64C90.641,72.445,72.445,90.641,50,90.641z"/>
	<path fill-rule="evenodd" clip-rule="evenodd" fill="#BCA177" d="M68.481,60.46c-0.146-0.294-0.313-0.392-0.646-0.392
		c-11.839,0.012-23.678,0.01-35.518,0.01c-0.079,0-0.16,0.006-0.238-0.002c-0.155-0.016-0.239,0.043-0.316,0.186
		c-1.016,1.896-1.353,3.903-0.9,6.006c0.89,4.132,4.364,6.938,8.609,6.947c7.074,0.016,14.148,0.003,21.222,0.005
		c1.484,0.001,2.884-0.338,4.184-1.052c1.52-0.835,2.825-1.946,3.522-3.548c0.271-0.624,0.74-1.908,0.915-2.566
		C69.827,64.132,69.364,62.237,68.481,60.46z M40.19,70.188c-1.178,0-2.133-0.955-2.133-2.133s0.955-2.133,2.133-2.133
		s2.132,0.955,2.132,2.133S41.368,70.188,40.19,70.188z M49.984,66.918c-1.178,0-2.132-0.954-2.132-2.132
		c0-1.179,0.955-2.133,2.132-2.133s2.133,0.954,2.133,2.133C52.117,65.964,51.162,66.918,49.984,66.918z"/>
</g>
</svg>
